<svg width="31" height="30" viewBox="0 0 31 30" fill="none" xmlns="http://www.w3.org/2000/svg">
<g clip-path="url(#clip0_2727_3482)">
<path d="M15.5058 29.9997C15.5058 29.9997 15.502 29.9997 15.4935 29.9997C14.9924 29.9997 -0.85601 29.919 0.594072 20.9424C0.603562 20.8799 0.614001 20.8174 0.625389 20.754C0.647216 20.6349 0.67284 20.5138 0.70131 20.3908C0.755403 20.1583 0.810446 19.9267 0.866437 19.6942C0.902499 19.5462 0.938562 19.3982 0.975573 19.2512C1.00974 19.1147 1.0439 18.9783 1.07901 18.8409C1.11223 18.7112 1.14544 18.5815 1.17961 18.4527C1.18056 18.4479 1.18246 18.444 1.18341 18.4392C1.24699 18.1971 1.31247 17.955 1.3808 17.7138C1.38934 17.6811 1.39788 17.6484 1.40737 17.6158C1.9018 15.8487 2.48734 14.1075 3.20479 12.4221C3.98772 10.5859 4.97374 8.93506 6.11919 7.30827C7.78375 4.94544 9.75104 2.35968 12.2536 0.855885C13.2197 0.274546 14.368 -0.0905927 15.5001 0.0189489C16.6323 -0.0905927 17.7796 0.274546 18.7457 0.855885C21.2483 2.35968 23.2155 4.94544 24.8801 7.30827C26.0256 8.93506 27.0116 10.5859 27.7936 12.4221C28.6818 14.5044 29.3661 16.6722 29.9269 18.8697C29.9858 19.0975 30.0427 19.3261 30.0987 19.5548C30.1006 19.5596 30.1015 19.5644 30.1025 19.5692C30.1348 19.7019 30.167 19.8345 30.1983 19.9671C30.2126 20.0276 30.2278 20.0872 30.241 20.1477C30.261 20.2284 30.279 20.3101 30.298 20.3908C32.4978 29.9161 16.0173 29.9997 15.5058 29.9997Z" fill="url(#paint0_radial_2727_3482)"/>
<circle cx="19.5001" cy="8.00006" r="2" fill="#D7D9FF"/>
<path d="M15.5055 29.9998C15.5055 29.9998 15.5017 29.9998 15.4932 29.9998C14.9921 29.9998 -0.856287 29.9191 0.593796 20.9424C0.603286 20.88 0.613725 20.8175 0.625113 20.7541C0.64694 20.6349 0.672563 20.5139 0.701033 20.3909C0.755127 20.1583 0.810169 19.9268 0.866161 19.6942C0.902223 19.5462 0.938285 19.3983 0.975296 19.2512C1.00946 19.1148 1.04362 18.9784 1.07874 18.8409C1.11195 18.7112 1.14517 18.5815 1.17933 18.4527C1.18028 18.4479 1.18218 18.4441 1.18313 18.4393C1.24671 18.1971 1.31219 17.955 1.38052 17.7138C1.41564 17.6869 1.4517 17.66 1.48681 17.6331C3.15706 16.3686 5.10727 14.6486 5.62353 13.1842C7.20173 8.71027 10.3382 11.2614 11.6127 12.5644C12.0179 12.9785 12.65 13.0612 13.1406 12.7566C13.8021 12.3453 14.7217 11.5516 15.6299 10.0363C16.3075 8.90629 17.7148 8.45947 18.8906 9.03313C20.7915 9.96135 23.9954 12.3367 29.2538 18.0847C29.4967 18.3509 29.7217 18.6123 29.9266 18.8698C29.9855 19.0975 30.0424 19.3262 30.0984 19.5549C30.1003 19.5597 30.1013 19.5645 30.1022 19.5693C30.1345 19.7019 30.1667 19.8345 30.1981 19.9671C30.2123 20.0276 30.2275 20.0872 30.2408 20.1478C30.2607 20.2285 30.2787 20.3101 30.2977 20.3909C32.4975 29.9162 16.0171 29.9998 15.5055 29.9998Z" fill="#8589EB"/>
<path opacity="0.15" d="M15.5055 30C15.5055 30 15.5017 30 15.4932 30C14.9921 30 -0.856287 29.9193 0.593796 20.9426C0.603286 20.8802 0.613725 20.8177 0.625113 20.7543C0.64694 20.6351 0.672563 20.5141 0.701033 20.3911C0.755127 20.1585 0.810169 19.9269 0.866161 19.6944C0.902223 19.5464 0.938285 19.3985 0.975296 19.2514C1.73735 19.0929 2.57153 19.1986 3.20072 20.0182C3.26335 20.0989 3.32599 20.1787 3.39052 20.2565C3.72172 20.6563 4.08424 21.0108 4.48852 21.2837C4.77702 21.4788 5.08639 21.6325 5.42139 21.7315C6.01927 21.9093 6.69876 21.9131 7.48074 21.671C8.45916 21.3692 9.59892 20.6822 10.9446 19.4667C14.9798 15.822 20.6511 18.4722 22.5045 20.9023C23.666 22.4243 26.0898 22.0976 27.6775 21.6335C27.9613 21.5509 28.2412 21.4576 28.5136 21.3491C28.7736 21.2453 29.0279 21.129 29.2728 20.9945C29.3259 20.9657 29.3791 20.9359 29.4313 20.9051C29.5755 20.8206 29.716 20.7303 29.8536 20.6322C29.9798 20.5419 30.107 20.442 30.1791 20.3036C30.2057 20.2546 30.2237 20.2018 30.2408 20.148C30.2607 20.2287 30.2787 20.3103 30.2977 20.3911C32.4975 29.9164 16.0171 30 15.5055 30Z" fill="white"/>
<path opacity="0.15" d="M15.5055 30.0001C15.5055 30.0001 15.5017 30.0001 15.4932 30.0001C14.9921 30.0001 -0.856287 29.9194 0.593796 20.9427C0.603286 20.8803 0.613725 20.8178 0.625113 20.7544C0.64694 20.6352 0.672563 20.5142 0.701033 20.3912C0.755127 20.1586 0.810169 19.9271 0.866161 19.6945C0.902223 19.5466 0.938285 19.3986 0.975296 19.2516C1.00946 19.1151 1.04362 18.9787 1.07874 18.8413C1.11195 18.7115 1.14517 18.5818 1.17933 18.4531C1.18028 18.4483 1.18218 18.4444 1.18313 18.4396C1.24671 18.1975 1.31219 17.9553 1.38052 17.7141C1.38906 17.6815 1.3976 17.6488 1.40709 17.6161C1.43367 17.6219 1.46024 17.6276 1.48681 17.6334C1.86831 17.7228 2.24791 17.8967 2.61423 18.184C3.20072 18.6443 3.75304 19.3947 4.21995 20.5507C4.29872 20.7448 4.37559 20.9514 4.44866 21.1695C4.46195 21.2079 4.47428 21.2454 4.48852 21.2838C4.90513 22.4744 5.59886 23.7226 6.77752 24.2367C6.8933 24.2876 7.01478 24.3308 7.14004 24.3664C8.67079 24.7998 10.4103 23.9542 11.5985 23.025C11.9809 22.7261 12.3349 22.3889 12.7363 22.1179C15.4173 20.3066 18.7388 23.0413 20.3502 25.039C20.4252 25.1322 20.4992 25.2264 20.5723 25.3206C20.8475 25.677 21.1303 25.9586 21.4188 26.1709C23.9593 28.0533 26.9031 24.6671 28.8391 21.6826C28.9909 21.4501 29.1352 21.2195 29.2728 20.9946C29.4863 20.6477 29.6828 20.3133 29.8612 20.0001C29.9371 19.8665 30.0092 19.7368 30.0785 19.6129C30.0861 19.5984 30.0946 19.584 30.1022 19.5696C30.1345 19.7022 30.1667 19.8348 30.1981 19.9674C30.2123 20.028 30.2275 20.0875 30.2408 20.1481C30.2607 20.2288 30.2787 20.3105 30.2977 20.3912C32.4975 29.9165 16.0171 30.0001 15.5055 30.0001Z" fill="white"/>
<path opacity="0.15" d="M15.5055 30C15.5055 30 15.5017 30 15.4932 30C14.9921 30 -0.856287 29.9192 0.593796 20.9426C1.29701 20.5256 2.34471 20.0749 3.39052 20.2565C3.66953 20.3055 3.94853 20.3987 4.21995 20.5506C4.64511 20.7869 5.05413 21.1646 5.42139 21.7315C5.63017 22.0534 5.82567 22.4368 6.00313 22.8894C6.19483 23.3813 6.45201 23.8464 6.77752 24.2365C7.29473 24.8573 7.98466 25.2878 8.86059 25.3368C10.2566 25.4146 11.5311 24.6718 12.6386 23.9079C15.1573 22.1716 17.303 25.3175 19.8586 25.9642C20.4015 26.1016 20.9215 26.166 21.4188 26.1708C24.2677 26.2006 26.3593 24.2634 27.5693 22.7231C27.9945 22.1822 28.3114 21.6902 28.5136 21.3491C28.6891 21.0531 28.7793 20.8715 28.7793 20.8715C28.7793 20.8715 29.1959 20.1633 29.8612 20C29.883 19.9932 29.9058 19.9884 29.9285 19.9846C30.0149 19.9683 30.1051 19.9625 30.1981 19.9673C30.2123 20.0278 30.2275 20.0874 30.2408 20.148C30.2607 20.2287 30.2787 20.3103 30.2977 20.3911C32.4975 29.9164 16.0171 30 15.5055 30Z" fill="white"/>
<path opacity="0.15" d="M15.5055 30.0001C15.5055 30.0001 15.5017 30.0001 15.4932 30.0001C14.9921 30.0001 -0.856287 29.9194 0.593796 20.9427C0.603286 20.8802 0.613725 20.8178 0.625113 20.7544C0.64694 20.6352 0.672563 20.5141 0.701033 20.3912C0.755127 20.1586 0.810169 19.927 0.866161 19.6945C0.902223 19.5465 0.938285 19.3985 0.975296 19.2515C1.00946 19.1151 1.04362 18.9786 1.07874 18.8412C1.11195 18.7115 1.14517 18.5818 1.17933 18.453C1.18028 18.4482 1.18218 18.4444 1.18313 18.4396C1.65004 18.306 2.13593 18.2099 2.61423 18.184C3.92386 18.1119 5.1737 18.5645 5.81333 20.199C6.136 21.0244 6.72058 21.451 7.48074 21.6711C7.89356 21.7912 8.35762 21.8498 8.86059 21.8776C10.2566 21.9555 11.3887 20.9379 12.6386 20.4488C18.4351 18.1811 19.9592 21.844 22.421 22.7934C24.7204 23.6803 26.3878 23.4016 27.5693 22.7232C28.0799 22.4302 28.4993 22.0631 28.8391 21.6826C29.0725 21.4231 29.268 21.157 29.4313 20.9052C29.6571 20.5545 29.8204 20.2307 29.9285 19.9847C30.0016 19.8204 30.051 19.6916 30.0785 19.6128C30.087 19.5888 30.0937 19.5696 30.0984 19.5552C30.1003 19.56 30.1013 19.5648 30.1022 19.5696C30.1345 19.7022 30.1667 19.8348 30.1981 19.9674C30.2123 20.0279 30.2275 20.0875 30.2408 20.148C30.2607 20.2288 30.2787 20.3104 30.2977 20.3912C32.4975 29.9165 16.0171 30.0001 15.5055 30.0001Z" fill="white"/>
</g>
<defs>
<radialGradient id="paint0_radial_2727_3482" cx="0" cy="0" r="1" gradientUnits="userSpaceOnUse" gradientTransform="translate(15.4999 14.9998) scale(14.9075 15.0942)">
<stop offset="2.23767e-07" stop-color="#8485E0"/>
<stop offset="1" stop-color="#7680FC"/>
</radialGradient>
<clipPath id="clip0_2727_3482">
<rect width="30" height="30" fill="white" transform="translate(0.5)"/>
</clipPath>
</defs>
</svg>
